<?xml version="1.0" encoding="utf-8"?>
<!-- Generator: Adobe Illustrator 22.0.0, SVG Export Plug-In . SVG Version: 6.00 Build 0)  -->
<svg version="1.1" id="Layer_1" xmlns="http://www.w3.org/2000/svg" xmlns:xlink="http://www.w3.org/1999/xlink" x="0px" y="0px"
	 viewBox="0 0 1792 1792" style="enable-background:new 0 0 1792 1792;" xml:space="preserve">
<style type="text/css">
	.st0{fill:#FFFFFF;}
</style>
<path class="st0" d="M1449,605.5c0-62.2-22.2-115.3-66.5-159.3s-97.6-65.9-159.8-65.9s-115.3,22.2-159.3,66.5s-65.9,97.2-65.9,158.7
	c0,62.2,22,115.3,65.9,159.3s97,65.9,159.3,65.9s115.5-22,159.8-65.9S1449,667.7,1449,605.5z M737.3,1291.5
	c0,64.6-22.6,119.2-67.7,163.9s-99.6,67.1-163.3,67.1c-43.6,0-83.6-11.3-120.2-33.8c-36.6-22.6-64.6-52.5-84-89.8
	c40.4,15.6,78.6,31.1,114.3,46.7c46.7,18.7,93.3,18.1,140-1.8s79.7-53.5,99.2-100.9c18.7-46.7,18.1-93.3-1.8-140
	c-19.8-46.7-53.5-79.3-100.9-98l-95.7-38.5c17.1-3.9,33.4-5.8,49-5.8c63.8,0,118.2,22.4,163.3,67.1S737.3,1226.9,737.3,1291.5z
	 M1792,336v1120c0,92.6-32.9,171.7-98.6,237.4S1548.6,1792,1456,1792H336c-92.6,0-171.7-32.9-237.4-98.6S0,1548.6,0,1456v-178.5
	l200.7,80.5c15.6,71.6,51.9,130.7,109.1,177.3c57.2,46.7,122.7,70,196.6,70c80.9,0,151.3-27.2,211.2-81.7
	c59.9-54.4,93.7-121.7,101.5-201.8l402.5-294c116.7,0,216-41,298.1-123.1c82.1-82.1,123.1-181,123.1-296.9
	c0-116.7-41-216-123.1-298.1c-82.1-82.1-181.4-123.1-298.1-123.1c-115.1,0-213.5,40.6-295.2,121.9S803.1,488.1,801.5,603.2
	L539,978.8c-7-0.8-17.9-1.2-32.7-1.2c-58.3,0-111.6,14.4-159.8,43.2L0,882V336c0-92.6,32.9-171.7,98.6-237.4S243.4,0,336,0h1120
	c92.6,0,171.7,32.9,237.4,98.6S1792,243.4,1792,336z M1503.8,607.8c0,77.8-27.6,144.1-82.8,198.9S1299.3,889,1221.5,889
	s-144.1-27.4-198.9-82.3s-82.3-121.1-82.3-198.9s27.4-144.3,82.3-199.5c54.8-55.2,121.1-82.8,198.9-82.8
	c78.6,0,145.3,27.4,200.1,82.3C1476.4,462.6,1503.8,529.3,1503.8,607.8z"/>
</svg>
